
<svg viewBox="0 0 1200 250" xmlns="http://www.w3.org/2000/svg">
  <!-- Cielo extendido -->
  <rect width="100%" height="100%" fill="#0B132B" />
  <circle cx="941" cy="34" r="1.3" fill="#fffacd" /><circle cx="387" cy="34" r="1.4" fill="#e0e0ff" /><circle cx="19" cy="12" r="1.4" fill="#e0e0ff" /><circle cx="1035" cy="5" r="1.1" fill="#ffe0e0" /><circle cx="94" cy="30" r="1.0" fill="#fffacd" /><circle cx="224" cy="18" r="1.3" fill="#e0e0ff" /><circle cx="1173" cy="18" r="1.2" fill="#ffe0e0" /><circle cx="813" cy="14" r="1.2" fill="#fffacd" /><circle cx="1063" cy="36" r="1.1" fill="#ffe0e0" /><circle cx="670" cy="1" r="1.0" fill="#ffffff" /><circle cx="465" cy="4" r="1.2" fill="#fffacd" /><circle cx="989" cy="3" r="1.0" fill="#f0f8ff" /><circle cx="430" cy="9" r="1.1" fill="#fffacd" /><circle cx="622" cy="24" r="1.0" fill="#fffacd" /><circle cx="770" cy="3" r="1.4" fill="#ffffff" /><circle cx="573" cy="39" r="1.3" fill="#ffffff" /><circle cx="420" cy="0" r="1.1" fill="#e0e0ff" /><circle cx="966" cy="15" r="1.0" fill="#e0e0ff" /><circle cx="498" cy="25" r="1.1" fill="#f0f8ff" /><circle cx="448" cy="0" r="1.2" fill="#ffe0e0" /><circle cx="756" cy="32" r="1.2" fill="#f0f8ff" /><circle cx="392" cy="38" r="1.5" fill="#fffacd" /><circle cx="320" cy="21" r="1.3" fill="#ffffff" /><circle cx="777" cy="7" r="1.0" fill="#ffffff" /><circle cx="475" cy="21" r="1.4" fill="#ffffff" />  <!-- Reutilizando las estrellas anteriores -->

  <!-- Capas de olas con mayor movimiento -->
  <path fill="#9B51E0" fill-opacity="0.5" d="M0,60 C300,20 900,90 1200,40 L1200,250 L0,250 Z">
    <animate attributeName="d" dur="10s" repeatCount="indefinite"
      values="
        M0,60 C300,20 900,90 1200,40 L1200,250 L0,250 Z;
        M0,40 C350,60 850,10 1200,50 L1200,250 L0,250 Z;
        M0,60 C300,20 900,90 1200,40 L1200,250 L0,250 Z" />
  </path>

  <path fill="#C86DD7" fill-opacity="0.4" d="M0,90 C400,50 800,120 1200,60 L1200,250 L0,250 Z">
    <animate attributeName="d" dur="9s" repeatCount="indefinite"
      values="
        M0,90 C400,50 800,120 1200,60 L1200,250 L0,250 Z;
        M0,80 C450,70 750,40 1200,70 L1200,250 L0,250 Z;
        M0,90 C400,50 800,120 1200,60 L1200,250 L0,250 Z" />
  </path>

  <path fill="#FF7F50" fill-opacity="0.6" d="M0,120 C400,80 800,140 1200,90 L1200,250 L0,250 Z">
    <animate attributeName="d" dur="8s" repeatCount="indefinite"
      values="
        M0,120 C400,80 800,140 1200,90 L1200,250 L0,250 Z;
        M0,100 C420,100 780,100 1200,110 L1200,250 L0,250 Z;
        M0,120 C400,80 800,140 1200,90 L1200,250 L0,250 Z" />
  </path>

  <path fill="#FCA78F" fill-opacity="0.4" d="M0,150 C500,110 700,180 1200,110 L1200,250 L0,250 Z">
    <animate attributeName="d" dur="7s" repeatCount="indefinite"
      values="
        M0,150 C500,110 700,180 1200,110 L1200,250 L0,250 Z;
        M0,140 C520,120 680,160 1200,130 L1200,250 L0,250 Z;
        M0,150 C500,110 700,180 1200,110 L1200,250 L0,250 Z" />
  </path>
</svg>
