
<svg viewBox="0 0 1200 200" xmlns="http://www.w3.org/2000/svg">
  <defs>
    <filter id="neon" x="-50%" y="-50%" width="200%" height="200%">
      <feDropShadow dx="0" dy="0" stdDeviation="3" flood-color="#9B51E0"/>
      <feDropShadow dx="0" dy="0" stdDeviation="6" flood-color="#FF7F50"/>
    </filter>
  </defs>

  <rect width="100%" height="100%" fill="#0B132B" />
  <!-- Stars -->
  <circle cx="100" cy="50" r="1.5" fill="white" />
  <circle cx="110" cy="150" r="1.5" fill="white" />
  <circle cx="300" cy="80" r="1.2" fill="white" />
  <circle cx="500" cy="40" r="1.3" fill="white" />
  <circle cx="700" cy="70" r="1.1" fill="white" />
<circle cx="750" cy="120" r="1.1" fill="white" />
  <circle cx="900" cy="30" r="1.4" fill="white" />
  <circle cx="1100" cy="90" r="1.2" fill="white" />
  <circle cx="200" cy="120" r="1.3" fill="white" />
  <circle cx="400" cy="100" r="1.2" fill="white" />
  <circle cx="450" cy="150" r="1.2" fill="white" />
  <circle cx="600" cy="60" r="1.1" fill="white" />
  <circle cx="800" cy="110" r="1.3" fill="white" />
 <circle cx="850" cy="155" r="1.3" fill="white" />
 <circle cx="1000" cy="165" r="1.3" fill="white" />
  <circle cx="1150" cy="150" r="1.3" fill="white" />
  <circle cx="1160" cy="100" r="1.3" fill="white" />
  <circle cx="550" cy="120" r="1.3" fill="white" />
<svg xmlns="http://www.w3.org/2000/svg" width="1200" height="250">
  <circle cx="100" cy="50" r="1.5" fill="white" />
  <circle cx="110" cy="150" r="1.2" fill="#ffffe0" />
  <circle cx="300" cy="80" r="1.3" fill="#add8e6" />
  <circle cx="500" cy="40" r="1.1" fill="white" />
  <circle cx="700" cy="70" r="1.4" fill="#f8f8ff" />
  <circle cx="750" cy="120" r="1.1" fill="#fffacd" />
  <circle cx="900" cy="30" r="1.4" fill="white" />
  <circle cx="1100" cy="90" r="1.2" fill="#e0ffff" />
  <circle cx="200" cy="120" r="1.3" fill="#f5f5dc" />
  <circle cx="400" cy="100" r="1.2" fill="#f8f8ff" />
  <circle cx="450" cy="150" r="1.2" fill="white" />
  <circle cx="600" cy="60" r="1.1" fill="#ffffe0" />
  <circle cx="800" cy="110" r="1.3" fill="#b0e0e6" />
  <circle cx="850" cy="155" r="1.3" fill="#ffe4b5" />
  <circle cx="1000" cy="165" r="1.3" fill="#f8f8ff" />
  <circle cx="1150" cy="150" r="1.3" fill="white" />
  <circle cx="1160" cy="100" r="1.3" fill="#e0ffff" />
  <circle cx="550" cy="120" r="1.3" fill="#ffffe0" />
  <circle cx="130" cy="95" r="1.2" fill="white" />
  <circle cx="180" cy="160" r="1.1" fill="#f0f8ff" />
  <circle cx="250" cy="140" r="1.3" fill="#fffacd" />
  <circle cx="320" cy="60" r="1.2" fill="#add8e6" />
  <circle cx="370" cy="130" r="1.2" fill="#ffffe0" />
  <circle cx="480" cy="90" r="1.2" fill="white" />
  <circle cx="520" cy="170" r="1.1" fill="#f5f5dc" />
  <circle cx="580" cy="150" r="1.3" fill="#ffe4b5" />
  <circle cx="630" cy="100" r="1.2" fill="#f8f8ff" />
  <circle cx="670" cy="180" r="1.3" fill="#e0ffff" />
  <circle cx="720" cy="160" r="1.3" fill="white" />
  <circle cx="770" cy="90" r="1.2" fill="#f0f8ff" />
  <circle cx="830" cy="140" r="1.2" fill="#fffacd" />
  <circle cx="880" cy="180" r="1.3" fill="#b0e0e6" />
  <circle cx="950" cy="120" r="1.1" fill="#ffffe0" />
  <circle cx="1020" cy="190" r="1.2" fill="white" />
  <circle cx="1080" cy="130" r="1.3" fill="#f8f8ff" />
  <circle cx="1095" cy="60" r="1.1" fill="#add8e6" />
  <!-- Nuevas estrellas -->
  <circle cx="75" cy="185" r="1.3" fill="#ffffe0" />
  <circle cx="160" cy="40" r="1.4" fill="#f0f8ff" />
  <circle cx="90" cy="100" r="1.2" fill="#e0ffff" />
  <circle cx="220" cy="50" r="1.2" fill="#f5f5dc" />
  <circle cx="270" cy="180" r="1.3" fill="#b0e0e6" />
  <circle cx="350" cy="30" r="1.1" fill="#fffacd" />
  <circle cx="390" cy="200" r="1.4" fill="white" />
  <circle cx="430" cy="60" r="1.3" fill="#f8f8ff" />
  <circle cx="470" cy="110" r="1.1" fill="#ffe4b5" />
  <circle cx="510" cy="190" r="1.5" fill="#ffffe0" />
  <circle cx="570" cy="80" r="1.2" fill="white" />
  <circle cx="610" cy="140" r="1.1" fill="#f0f8ff" />
  <circle cx="660" cy="40" r="1.3" fill="#add8e6" />
  <circle cx="690" cy="120" r="1.2" fill="#f5f5dc" />
  <circle cx="730" cy="180" r="1.4" fill="white" />
  <circle cx="790" cy="60" r="1.3" fill="#e0ffff" />
  <circle cx="820" cy="170" r="1.2" fill="#fffacd" />
  <circle cx="870" cy="90" r="1.1" fill="#ffe4b5" />
  <circle cx="910" cy="110" r="1.3" fill="#f8f8ff" />
  <circle cx="970" cy="50" r="1.2" fill="#ffffe0" />
  <circle cx="990" cy="200" r="1.4" fill="white" />
  <circle cx="1040" cy="40" r="1.2" fill="#f0f8ff" />
  <circle cx="1060" cy="150" r="1.1" fill="#f5f5dc" />
  <circle cx="1120" cy="60" r="1.3" fill="#add8e6" />
  <circle cx="1140" cy="180" r="1.4" fill="#e0ffff" />
  <circle cx="1050" cy="100" r="1.2" fill="#fffacd" />
  <circle cx="1010" cy="70" r="1.1" fill="#f8f8ff" />
  <circle cx="860" cy="200" r="1.3" fill="#ffffe0" />
  <circle cx="610" cy="200" r="1.4" fill="white" />
  <circle cx="310" cy="200" r="1.2" fill="#f0f8ff" />
  <circle cx="150" cy="130" r="1.3" fill="#f5f5dc" />
  <circle cx="105" cy="180" r="1.2" fill="#b0e0e6" />
  <circle cx="190" cy="100" r="1.2" fill="#fffacd" />
  <circle cx="285" cy="60" r="1.3" fill="#ffe4b5" />
  <circle cx="330" cy="140" r="1.1" fill="#add8e6" />
  <circle cx="360" cy="90" r="1.2" fill="#e0ffff" />
  <circle cx="430" cy="190" r="1.5" fill="#ffffe0" />
  <circle cx="460" cy="30" r="1.3" fill="white" />
  <circle cx="245" cy="90" r="1.2" fill="#f8f8ff" />
  <circle cx="985" cy="110" r="1.2" fill="#f0f8ff" />
</svg>

  <!-- Moon -->
  <circle cx="1080" cy="90" r="40" fill="#FF7F50" />
  <!-- Improved text spacing -->
  <text x="10" y="180" font-family="monospace" font-size="30" fill="white" filter="url(#neon)">
    <tspan id="c1" dx="1">👋</tspan>
    <tspan id="c2" dx="1" visibility="hidden">¡</tspan>
    <tspan id="c3" dx="-15" visibility="hidden">H</tspan>
    <tspan id="c4" dx="-15" visibility="hidden">o</tspan>
    <tspan id="c5" dx="-15" visibility="hidden">l</tspan>
    <tspan id="c6" dx="-15" visibility="hidden">a</tspan>
    <tspan id="c7" dx="-15" visibility="hidden">!</tspan>	
    <tspan id="c8" dx="-15" visibility="hidden">,</tspan>
    <tspan id="c9" dx="15" visibility="hidden">S</tspan>
    <tspan id="c10" dx="-15" visibility="hidden">o</tspan>
    <tspan id="c11" dx="-15" visibility="hidden">y</tspan>
    <tspan id="c12" dx="15" visibility="hidden">C</tspan>
    <tspan id="c13" dx="-15" visibility="hidden">a</tspan>
    <tspan id="c14" dx="-15" visibility="hidden">r</tspan>
    <tspan id="c15" dx="-15" visibility="hidden">l</tspan>
    <tspan id="c16" dx="-15" visibility="hidden">o</tspan>
    <tspan id="c17" dx="-15" visibility="hidden">s</tspan>
    <tspan id="c18" dx="15" visibility="hidden">P</tspan>
    <tspan id="c19" dx="-15" visibility="hidden">.</tspan>
  </text>

  <script type="application/ecmascript"><![CDATA[
    const chars = Array.from({length: 19}, (_, i) => document.getElementById("c" + (i + 1)));
    chars.forEach((char, i) => {
      setTimeout(() => { char.setAttribute("visibility", "visible"); }, 160 * i);
    });
  ]]></script>

</svg>
