<?xml version="1.0" standalone="no"?><svg xmlns="http://www.w3.org/2000/svg" viewBox="0 0 1440 320"><path fill="#951be0" fill-opacity="1.1" d="M0,96L21.8,106.7C43.6,117,87,139,131,133.3C174.5,128,218,96,262,85.3C305.5,75,349,85,393,101.3C436.4,117,480,139,524,170.7C567.3,203,611,245,655,218.7C698.2,192,742,96,785,74.7C829.1,53,873,107,916,133.3C960,160,1004,160,1047,133.3C1090.9,107,1135,53,1178,69.3C1221.8,85,1265,171,1309,208C1352.7,245,1396,235,1418,229.3L1440,224L1440,320L1418.2,320C1396.4,320,1353,320,1309,320C1265.5,320,1222,320,1178,320C1134.5,320,1091,320,1047,320C1003.6,320,960,320,916,320C872.7,320,829,320,785,320C741.8,320,698,320,655,320C610.9,320,567,320,524,320C480,320,436,320,393,320C349.1,320,305,320,262,320C218.2,320,175,320,131,320C87.3,320,44,320,22,320L0,320Z"></path></svg>